<svg width="101" height="113" xmlns="http://www.w3.org/2000/svg" xmlns:xlink="http://www.w3.org/1999/xlink"><defs><path d="M22.2.77l14.653 8.46a4.4 4.4 0 0 1 2.2 3.81v16.92a4.4 4.4 0 0 1-2.2 3.81L22.2 42.23a4.4 4.4 0 0 1-4.4 0L3.147 33.77a4.4 4.4 0 0 1-2.2-3.81V13.04a4.4 4.4 0 0 1 2.2-3.81L17.8.77a4.4 4.4 0 0 1 4.4 0z" id="a"/><linearGradient x1="0%" y1="0%" x2="102%" y2="101%" id="c"><stop stop-color="#FFF" stop-opacity=".1" offset="0%"/><stop stop-color="#FFF" stop-opacity=".5" offset="100%"/></linearGradient><linearGradient x1="100%" y1="100%" x2="0%" y2="0%" id="d"><stop stop-color="#556FF2" offset="0%"/><stop stop-color="#00BFFF" offset="100%"/></linearGradient><linearGradient x1="100%" y1="100%" x2="0%" y2="0%" id="e"><stop stop-color="#5C26FF" offset="0%"/><stop stop-color="#8C66FF" offset="100%"/></linearGradient><linearGradient x1="100%" y1="100%" x2="0%" y2="0%" id="f"><stop stop-color="#FF9F19" offset="0%"/><stop stop-color="#FC3" offset="100%"/></linearGradient><linearGradient x1="0%" y1="0%" y2="100%" id="g"><stop stop-color="#FF9F19" offset="0%"/><stop stop-color="#FC3" offset="100%"/></linearGradient></defs><g fill="none" fill-rule="evenodd"><g transform="translate(41)" opacity=".3" stroke-dasharray="1,4.150000095367432"><mask id="b" fill="#fff"><use xlink:href="#a"/></mask><path d="M22.2.77l14.653 8.46a4.4 4.4 0 0 1 2.2 3.81v16.92a4.4 4.4 0 0 1-2.2 3.81L22.2 42.23a4.4 4.4 0 0 1-4.4 0L3.147 33.77a4.4 4.4 0 0 1-2.2-3.81V13.04a4.4 4.4 0 0 1 2.2-3.81L17.8.77a4.4 4.4 0 0 1 4.4 0z" stroke="#FFF" stroke-width="2" mask="url(#b)"/></g><g opacity=".3"><path d="M22.2 70.77l14.653 8.46a4.4 4.4 0 0 1 2.2 3.81v16.92a4.4 4.4 0 0 1-2.2 3.81L22.2 112.23a4.4 4.4 0 0 1-4.4 0l-14.653-8.46a4.4 4.4 0 0 1-2.2-3.81V83.04a4.4 4.4 0 0 1 2.2-3.81L17.8 70.77a4.4 4.4 0 0 1 4.4 0z" fill="#000"/><path d="M22.2.77l14.653 8.46a4.4 4.4 0 0 1 2.2 3.81v16.92a4.4 4.4 0 0 1-2.2 3.81L22.2 42.23a4.4 4.4 0 0 1-4.4 0L3.147 33.77a4.4 4.4 0 0 1-2.2-3.81V13.04a4.4 4.4 0 0 1 2.2-3.81L17.8.77a4.4 4.4 0 0 1 4.4 0z" fill="url(#c)" transform="translate(0 70)"/></g><path d="M83.2 34.77l14.653 8.46a4.4 4.4 0 0 1 2.2 3.81v16.92a4.4 4.4 0 0 1-2.2 3.81L83.2 76.23a4.4 4.4 0 0 1-4.4 0l-14.653-8.46a4.4 4.4 0 0 1-2.2-3.81V47.04a4.4 4.4 0 0 1 2.2-3.81L78.8 34.77a4.4 4.4 0 0 1 4.4 0z" fill="#000"/><path d="M22.2 1.27l14.653 8.46a4.4 4.4 0 0 1 2.2 3.81v16.92a4.4 4.4 0 0 1-2.2 3.81L22.2 42.73a4.4 4.4 0 0 1-4.4 0L3.147 34.27a4.4 4.4 0 0 1-2.2-3.81V13.54a4.4 4.4 0 0 1 2.2-3.81L17.8 1.27a4.4 4.4 0 0 1 4.4 0z" fill="url(#d)" transform="translate(61 33.5)"/><path d="M86.656 48.5h2.314l-4.814 5.035a4.326 4.326 0 0 1-6.311 0L73.03 48.5h2.314l3.658 3.825a2.74 2.74 0 0 0 3.997 0l3.657-3.825zm-11.342 14H73l4.844-5.066a4.326 4.326 0 0 1 6.312 0L89 62.5h-2.314l-3.687-3.856a2.74 2.74 0 0 0-3.998 0L75.314 62.5z" fill="#FFF" fill-rule="nonzero"/><path d="M23.2.77l14.653 8.46a4.4 4.4 0 0 1 2.2 3.81v16.92a4.4 4.4 0 0 1-2.2 3.81L23.2 42.23a4.4 4.4 0 0 1-4.4 0L4.147 33.77a4.4 4.4 0 0 1-2.2-3.81V13.04a4.4 4.4 0 0 1 2.2-3.81L18.8.77a4.4 4.4 0 0 1 4.4 0z" fill="#000"/><path d="M22.2 1.27l14.653 8.46a4.4 4.4 0 0 1 2.2 3.81v16.92a4.4 4.4 0 0 1-2.2 3.81L22.2 42.73a4.4 4.4 0 0 1-4.4 0L3.147 34.27a4.4 4.4 0 0 1-2.2-3.81V13.54a4.4 4.4 0 0 1 2.2-3.81L17.8 1.27a4.4 4.4 0 0 1 4.4 0z" fill="url(#e)" transform="translate(1 -.5)"/><path fill="#FFF" d="M20.763 25.695l-6.752-3.99L20.763 10.5l6.752 11.204z"/><path fill="#FFF" d="M20.763 32.5l-6.752-9.515 6.752 3.989 6.756-3.989-6.756 9.515z"/><g><path d="M43.7 30.059L61.683 40.44a5.4 5.4 0 0 1 2.7 4.677v20.764a5.4 5.4 0 0 1-2.7 4.677L43.7 80.94a5.4 5.4 0 0 1-5.4 0L20.317 70.56a5.4 5.4 0 0 1-2.7-4.677V45.118a5.4 5.4 0 0 1 2.7-4.677L38.3 30.06a5.4 5.4 0 0 1 5.4 0v-.001z" fill="#000"/><path d="M26.7 1.559L44.683 11.94a5.4 5.4 0 0 1 2.7 4.677v20.764a5.4 5.4 0 0 1-2.7 4.677L26.7 52.44a5.4 5.4 0 0 1-5.4 0L3.317 42.06a5.4 5.4 0 0 1-2.7-4.677V16.618a5.4 5.4 0 0 1 2.7-4.677L21.3 1.56a5.4 5.4 0 0 1 5.4 0v-.001z" fill="url(#f)" transform="translate(17 28.5)"/><path d="M26.2 6.77l14.653 8.46a4.4 4.4 0 0 1 2.2 3.81v16.92a4.4 4.4 0 0 1-2.2 3.81L26.2 48.23a4.4 4.4 0 0 1-4.4 0L7.147 39.77a4.4 4.4 0 0 1-2.2-3.81V19.04a4.4 4.4 0 0 1 2.2-3.81L21.8 6.77a4.4 4.4 0 0 1 4.4 0z" fill="url(#g)" transform="translate(17 28)"/><path d="M45.106 62.73c-1.225.443-2.364.275-2.87.208-.248-.032-.67-.11-1.12-.202l-.745 2.781-1.712-.458.733-2.737-1.304-.35-.733 2.737-1.713-.459.734-2.736-3.369-.903.903-1.962 1.024.274c.344.092.497.099.677.002.18-.098.268-.297.313-.466l1.899-7.085c.119-.444.115-.574-.028-.856-.143-.283-.615-.442-.885-.514l-.99-.265.477-1.778 3.368.902.735-2.744 1.713.459-.736 2.744 1.304.35.736-2.745 1.712.459-.744 2.777c1.255.421 2.14.92 2.806 1.754.86 1.08.435 2.441.323 2.763-.112.321-.425.915-.823 1.246-.397.33-1.21.55-1.21.55s.784.399 1.251.996c.466.596.69 1.488.361 2.618-.328 1.13-.862 2.196-2.087 2.64zm-3.553-5.944c-.833-.283-1.936-.519-1.936-.519l-.985 3.673s1.13.329 1.906.476c.774.148 1.61.166 2.06.055.45-.111 1.012-.32 1.237-1.16.225-.841-.24-1.343-.518-1.589-.277-.246-.931-.652-1.764-.936zm-.056-1.841c.631.143 1.334.177 1.884.041.551-.135.935-.478 1.086-1.106.151-.629-.123-1.268-.77-1.673-.646-.405-1.113-.548-1.647-.7-.534-.15-1.091-.249-1.091-.249l-.886 3.305s.794.238 1.424.382z" fill="#FFF" fill-rule="nonzero"/></g></g></svg>