<svg width="40" height="40" xmlns="http://www.w3.org/2000/svg"><defs><linearGradient x1="-8.43%" y1="0%" x2="106.781%" y2="100%" id="a"><stop stop-color="#EFB55A" offset="0%"/><stop stop-color="#FFAE25" offset="100%"/></linearGradient></defs><g fill="none" fill-rule="evenodd"><path d="M20 1.155l13.32 7.69a4 4 0 0 1 2 3.464v15.382a4 4 0 0 1-2 3.464L20 38.845a4 4 0 0 1-4 0l-13.32-7.69a4 4 0 0 1-2-3.464V12.309a4 4 0 0 1 2-3.464L16 1.155a4 4 0 0 1 4 0z" fill="url(#a)" transform="translate(2)"/><g fill-rule="nonzero"><path fill="#FFF" d="M20.024 10.074l9.963 9.963L20.024 30l-9.963-9.963z"/><path fill="#FAF8F8" d="M20.024 23.288l-9.972-3.251 9.972-9.963 9.97 9.963z"/><path fill="#FFC745" d="M13.52 19.386h4.553l1.95-2.167 2.168 2.167h4.552l-6.72-7.26-6.502 7.26"/><path fill="#F1F1F1" opacity=".42" d="M20.024 30V10.073l9.962 9.963-9.962 9.962"/></g></g></svg>