<?xml version="1.0" encoding="utf-8"?>
<!-- Generator: Adobe Illustrator 22.1.0, SVG Export Plug-In . SVG Version: 6.00 Build 0)  -->
<svg version="1.1" id="Layer_1" xmlns="http://www.w3.org/2000/svg" xmlns:xlink="http://www.w3.org/1999/xlink" x="0px" y="0px"
	 viewBox="0 0 40 40" style="enable-background:new 0 0 40 40;" xml:space="preserve">
<style type="text/css">
	.st0{fill:url(#Path_3_);}
	.st1{fill:#FFFFFF;}
</style>
<g id="Page-1">
	<g id="ETH">
		
			<linearGradient id="Path_3_" gradientUnits="userSpaceOnUse" x1="-1355.3434" y1="2781.0864" x2="-1354.501" y2="2779.0122" gradientTransform="matrix(33.6778 0 0 -37.6851 45651.5195 104788.4766)">
			<stop  offset="0" style="stop-color:#171C30"/>
			<stop  offset="1" style="stop-color:#5A63B8"/>
		</linearGradient>
		<path id="Path" class="st0" d="M22,1l13.4,7.8c1.2,0.7,2,2.1,2,3.5v15.5c0,1.4-0.8,2.8-2,3.5L22,39c-1.2,0.7-2.8,0.7-4,0L4.5,31.3
			c-1.2-0.7-2-2.1-2-3.5V12.2c0-1.4,0.8-2.8,2-3.5L18,1C19.2,0.3,20.8,0.3,22,1z"/>
		<g id="Group" transform="translate(11.666667, 9.722222)">
			<polygon id="Path_1_" class="st1" points="8.5,14.1 2.3,10.5 8.5,0.2 14.7,10.5 			"/>
			<polygon id="Path_2_" class="st1" points="8.5,20.4 2.3,11.6 8.5,15.3 14.7,11.6 			"/>
		</g>
	</g>
</g>
</svg>
