<svg width="64" height="106" xmlns="http://www.w3.org/2000/svg" xmlns:xlink="http://www.w3.org/1999/xlink"><defs><linearGradient x1="0%" y1="0%" x2="102%" y2="101%" id="a"><stop stop-color="#FFF" stop-opacity=".1" offset="0%"/><stop stop-color="#FFF" stop-opacity=".5" offset="100%"/></linearGradient><linearGradient x1="102%" y1="101%" x2="2.718%" y2="2.691%" id="b"><stop stop-color="#FFF" stop-opacity=".1" offset="0%"/><stop stop-color="#FFF" stop-opacity=".5" offset="100%"/></linearGradient><path d="M0 75V0l31.996 11.912c.005 8.357.005 14.37 0 18.036C31.97 49.055 21.304 64.072 0 75z" id="c"/><linearGradient x1="30.589%" y1="100%" x2="71.475%" y2="0%" id="d"><stop stop-color="#556FF2" offset="0%"/><stop stop-color="#00BFFF" offset="100%"/></linearGradient><path d="M0 75V0l31.996 11.912c.005 8.357.005 14.37 0 18.036C31.97 49.055 21.304 64.072 0 75z" id="f"/><linearGradient x1="24.157%" y1="100%" x2="76.807%" y2="0%" id="g"><stop stop-color="#5C26FF" offset="0%"/><stop stop-color="#8C66FF" offset="100%"/></linearGradient><path d="M0 75V0l31.996 11.912c.005 8.357.005 14.37 0 18.036C31.97 49.055 21.304 64.072 0 75z" id="i"/><linearGradient x1="26.17%" y1="100%" x2="78.306%" y2="0%" id="j"><stop stop-color="#FF9F19" offset="0%"/><stop stop-color="#FC3" offset="100%"/></linearGradient><path d="M0 75V0l31.996 11.912c.005 8.357.005 14.37 0 18.036C31.97 49.055 21.304 64.072 0 75z" id="l"/><linearGradient x1="50%" y1="0%" x2="50%" y2="100%" id="m"><stop stop-opacity=".15" offset="0%"/><stop stop-color="#FFF" stop-opacity="0" offset="100%"/></linearGradient></defs><g fill="none" fill-rule="evenodd"><path d="M63.996 28.912c.005 8.357.005 14.37 0 18.036C63.969 66.056 53.303 81.073 31.998 92 10.696 81.071.031 66.055.004 46.948c-.005-3.666-.005-9.679 0-18.036L32 17l31.996 11.912z" fill="url(#a)" opacity=".25" transform="translate(0 -4)"/><path d="M58.997 33.006c.004 7.02.004 12.07 0 15.15-.023 16.05-9.023 28.665-26.998 37.844C14.025 76.82 5.026 64.206 5.003 48.157c-.004-3.08-.004-8.13 0-15.151L32 23l26.997 10.006z" fill="url(#b)" opacity=".5" transform="translate(0 -4)"/><path d="M32 88V13l31.996 11.912c.005 8.357.005 14.37 0 18.036C63.97 62.055 53.304 77.072 32 88z" fill="#000"/><g transform="translate(32 13)"><mask id="e" fill="#fff"><use xlink:href="#c"/></mask><path fill="url(#d)" mask="url(#e)" d="M20.724-23.244L39.815-4.152-2.61 38.274l-19.092-19.092z"/></g><g transform="translate(32 13)"><mask id="h" fill="#fff"><use xlink:href="#f"/></mask><path fill="url(#g)" mask="url(#h)" d="M28.698 1.23l14.143 14.143L.414 57.799l-14.142-14.142z"/></g><g transform="translate(32 13)"><mask id="k" fill="#fff"><use xlink:href="#i"/></mask><path fill="url(#j)" mask="url(#k)" d="M31.698 25.23l14.143 14.143L3.414 81.799l-14.142-14.142z"/></g><g transform="translate(32 13)"><mask id="n" fill="#fff"><use xlink:href="#l"/></mask><path d="M26.997 16.006c.004 7.02.004 12.07 0 15.15C26.974 47.207 17.974 59.822-.001 69c-17.974-9.18-26.973-21.794-26.996-37.843-.004-3.08-.004-8.13 0-15.151L0 6l26.997 10.006z" fill="url(#m)" mask="url(#n)"/></g><path d="M32 106V-4" stroke="#FFF" opacity=".4" stroke-dasharray="1,4"/><g fill="#FFF"><path d="M31.023 53.947L42.451 42.52l3.24 3.239L30.996 60.45l-3.239-3.239-6.478-6.477 3.266-3.265 6.477 6.477z"/></g></g></svg>