<svg width="70" height="81" xmlns="http://www.w3.org/2000/svg" xmlns:xlink="http://www.w3.org/1999/xlink"><defs><linearGradient x1="0%" y1="0%" x2="102%" y2="101%" id="a"><stop stop-color="#FFF" stop-opacity=".1" offset="0%"/><stop stop-color="#FFF" stop-opacity=".5" offset="100%"/></linearGradient><linearGradient x1="0%" y1="0%" x2="102%" y2="101%" id="b"><stop stop-color="#12CEF7" offset="0%"/><stop stop-color="#5766F2" offset="100%"/></linearGradient><path d="M55 27H15l-3-12v12H0V13.534a7.96 7.96 0 0 1 5.003-7.43L21.756 0c2.821 3.413 7.133 5.118 13.245 5.224 6.308.11 10.648-1.634 13.43-5.144L65 6.104a7.965 7.965 0 0 1 5.002 7.43V27H58V15l-3 12z" id="c"/><linearGradient x1="30.589%" y1="100%" x2="71.475%" y2="0%" id="d"><stop stop-color="#556FF2" offset="0%"/><stop stop-color="#00BFFF" offset="100%"/></linearGradient><path d="M55 27H15l-3-12v12H0V13.534a7.96 7.96 0 0 1 5.003-7.43L21.756 0c2.821 3.413 7.133 5.118 13.245 5.224 6.308.11 10.648-1.634 13.43-5.144L65 6.104a7.965 7.965 0 0 1 5.002 7.43V27H58V15l-3 12z" id="f"/><linearGradient x1="24.157%" y1="100%" x2="76.807%" y2="0%" id="g"><stop stop-color="#5C26FF" offset="0%"/><stop stop-color="#8C66FF" offset="100%"/></linearGradient><path d="M55 27H15l-3-12v12H0V13.534a7.96 7.96 0 0 1 5.003-7.43L21.756 0c2.821 3.413 7.133 5.118 13.245 5.224 6.308.11 10.648-1.634 13.43-5.144L65 6.104a7.965 7.965 0 0 1 5.002 7.43V27H58V15l-3 12z" id="i"/><linearGradient x1="26.17%" y1="100%" x2="78.306%" y2="0%" id="j"><stop stop-color="#FF9F19" offset="0%"/><stop stop-color="#FC3" offset="100%"/></linearGradient><linearGradient x1="102%" y1="101%" x2="2.718%" y2="2.691%" id="l"><stop stop-color="#FFF" stop-opacity=".1" offset="0%"/><stop stop-color="#FFF" stop-opacity=".5" offset="100%"/></linearGradient></defs><g fill="none" fill-rule="evenodd"><path d="M52.5 20.659v-2.558c-.006-5.792-4.03-10.626-9.287-11.156L40.468.944c-.39-.578-1.478-.368-2.954.187L26.71 5.363c-5.348 2.413-8.94 8.006-9.21 14.344v.952c-.292-.227-.6-.35-.908-.323-1.312.115-2.16 2.707-1.892 5.789.263 3.03 1.51 5.393 2.8 5.36v1.456c0 7.001 7.258 17.69 17.5 17.69 10.241 0 17.502-10.692 17.5-17.69v-1.456c1.29.033 2.535-2.33 2.799-5.36.269-3.082-.58-5.674-1.892-5.79-.307-.026-.615.097-.907.324z" fill="url(#a)" opacity=".25"/><path d="M27 39s.687 5.632 8 5.632c7.314 0 8-5.632 8-5.632" fill="url(#a)" opacity=".25"/><path d="M55 27H15l-3-12v12H0V13.534a7.96 7.96 0 0 1 5.003-7.43L21.756 0c2.821 3.413 7.133 5.118 13.245 5.224 6.308.11 10.648-1.634 13.43-5.144L65 6.104a7.965 7.965 0 0 1 5.002 7.43V27H58V15l-3 12z" fill="url(#b)" transform="translate(0 54)"/><g transform="translate(0 54)"><mask id="e" fill="#fff"><use xlink:href="#c"/></mask><path fill="url(#d)" mask="url(#e)" d="M74.426-9L90.69 7.263 48.263 49.69 32 33.426z"/></g><g transform="translate(0 54)"><mask id="h" fill="#fff"><use xlink:href="#f"/></mask><path fill="url(#g)" mask="url(#h)" d="M48.52-9.956L61.957 3.48 24.479 40.956 11.044 27.52z"/></g><g transform="translate(0 54)"><mask id="k" fill="#fff"><use xlink:href="#i"/></mask><path fill="url(#j)" mask="url(#k)" d="M27.289-17.638l14.849 14.85L-.29 39.637l-14.849-14.85z"/></g><path d="M49.908 22.31c2.591 0 2.591-2.05 2.591-2.05V18.1c-.004-5.792-4.03-10.625-9.286-11.155L40.469.943c-.391-.577-1.478-.368-2.954.188L26.71 5.364c-5.349 2.412-8.941 8.004-9.212 14.344v5.99s3.714-5.333 10.21-5.6c6.495-.267 7.94 1.706 13.78 2.186 2.32.192 5.97.027 8.42.027v-.001z" fill="url(#l)" opacity=".4"/></g></svg>